<svg xmlns="http://www.w3.org/2000/svg" viewBox="0 0 100.71 17.5"><defs><style>.cls-1{fill:#24574a;}</style></defs><title>logo-pequeño</title><g id="Capa_2" data-name="Capa 2"><g id="Layer_1" data-name="Layer 1"><g id="SdlgEb"><path class="cls-1" d="M3.83,9.89c0,.66,0,1.24,0,1.82,0,1.18,0,2.36.08,3.53C4,16.6,4.17,16.77,5.52,17a.43.43,0,0,1,.29.17H.63C1.85,17,2,16.11,2,15.2c.05-1.8.07-3.6.07-5.39q0-3.68,0-7.34C2,.58,2,.53.08.19.34.09-.14,0,0,0,2.17,0,4.86,0,7,.06a4.52,4.52,0,0,1,3.65,1.69A4.26,4.26,0,0,1,11.09,6,7.75,7.75,0,0,1,9.36,8.68l-.67.71c.54.69,1.05,1.36,1.58,2,.85,1.06,1.7,2.12,2.56,3.16a5.89,5.89,0,0,0,4.2,2.5,34.81,34.81,0,0,1-3.54,0A3.39,3.39,0,0,1,11.3,15.5C10.15,14,9,12.58,8,11.05A2.31,2.31,0,0,0,5.71,9.88C5.13,9.86,4.54,9.89,3.83,9.89Zm0-5.11h0c0,1.11,0,2.23,0,3.35,0,.57,0,.95,0,.95l2.94,0A2.22,2.22,0,0,0,9,7.78a5.72,5.72,0,0,0,.2-4.62A3.33,3.33,0,0,0,6,.69c-1.48,0-2.2.26-2.19.82C3.85,2.6,3.83,3.69,3.83,4.78Z"/><path class="cls-1" d="M32.84,9.54c0,5.17-4.25,8.46-9.2,7.87a7.13,7.13,0,0,1-5.49-3.29,7.62,7.62,0,0,1,5-11.64,10.56,10.56,0,0,1,4.37.17A6.89,6.89,0,0,1,32.84,9.54ZM24.71,3a5.28,5.28,0,0,0-5.56,4.43,9,9,0,0,0,.42,5.38,5.87,5.87,0,0,0,4.25,3.77,5.34,5.34,0,0,0,6.77-4.14,10.4,10.4,0,0,0-.09-4.9A5.83,5.83,0,0,0,24.71,3Z"/><path class="cls-1" d="M89.47,17.14h-4l0-.07c.14,0,.27-.09.41-.12a2,2,0,0,0,1.55-1.3c.48-1.17,1-2.34,1.41-3.52q1.71-4.4,3.43-8.8c.13-.35.31-.69.56-1.23.24.41.41.66.53.93C94.1,5,94.9,7,95.7,8.91s1.51,3.7,2.27,5.56c.09.21.19.43.3.64.65,1.35.9,1.56,2.44,2H96.9a5.23,5.23,0,0,0-.14-1c-.49-1.26-1-2.5-1.52-3.76a.74.74,0,0,0-.8-.52c-1.27,0-2.54,0-3.81,0-.34,0-.63,0-.77.42-.39,1.17-.85,2.32-1.21,3.5C88.37,16.63,88.49,16.77,89.47,17.14ZM92.59,5.33A21.91,21.91,0,0,0,90.5,11h4.19C94,9.06,93.3,7.26,92.59,5.33Z"/><path class="cls-1" d="M56.77,14.88c-.08.61-.15,1.21-.25,1.81-.08.43-.4.56-.79.56-.56,0-1.12,0-1.68,0l-5.41-.07h-.57s0-.09,0-.1c1-.1,1.11-.8,1.12-1.54,0-2.24.09-4.48.11-6.72,0-1.44,0-2.89,0-4.33S49.1,3,47.84,2.64h8.39L56,4.81c-.29-.44-.45-.93-.79-1.13a2.92,2.92,0,0,0-1.37-.27c-.87,0-1.75,0-2.68,0V9c.13,0,3.73.16,4.73-.24l-.19,2.35c-.32-1.23-1.28-1.18-2.23-1.18H51.08c0,1.55,0,3,0,4.48,0,1.88.26,2.11,2.17,2.13.36,0,.71,0,1.07,0,1.37,0,1.7-.46,2.31-1.6C56.66,14.82,56.73,14.89,56.77,14.88Z"/><path class="cls-1" d="M36.11,14.1a2.38,2.38,0,0,0,1.58,2.34,4.08,4.08,0,0,0,3.75-.21,2.62,2.62,0,0,0,.31-4c-.73-.73-1.6-1.3-2.38-2A18.44,18.44,0,0,1,37,8.16a3.39,3.39,0,0,1,1.76-5.61,8.65,8.65,0,0,1,4.65.15V5c-.13-.06-.21-.08-.21-.11a2,2,0,0,0-1.63-1.75,3.79,3.79,0,0,0-3.31.42,2.09,2.09,0,0,0-.22,3.07,15,15,0,0,0,2,1.73c.83.66,1.73,1.24,2.51,1.95A4.1,4.1,0,0,1,44,13.54a3.75,3.75,0,0,1-2.65,3.6,8.28,8.28,0,0,1-4.88,0,.88.88,0,0,1-.74-1c.06-.66.11-1.32.16-2Z"/><path class="cls-1" d="M71.59,2.62V4.79c-.36-1.14-1.29-1.27-2.25-1.32-.76,0-1.53,0-2.3-.05-.5,0-.74.13-.74.69,0,3.74,0,7.48,0,11.22,0,.21,0,.41.07.62a1,1,0,0,0,1,1,1.36,1.36,0,0,1,.58.21h-4.5c.89-.25,1-.94,1-1.73,0-3.77,0-7.54.08-11.31,0-.49-.18-.69-.67-.67-.83,0-1.65,0-2.48,0-1,0-1.92.13-2.25,1.39a3.28,3.28,0,0,1,.36-2.35C63.57,2.78,67.56,2.6,71.59,2.62Z"/><path class="cls-1" d="M82.32,17.16l-.62,0c-1.35,0-2.71,0-4.11-.06.89-.18,1.09-.81,1.13-1.54s.07-1.35.07-2q0-4.63,0-9.29c0-.23,0-.46,0-.84-.39,0-.76,0-1.13,0-.68,0-1.36,0-2,0a2.18,2.18,0,0,0-2.25,1.17,5.5,5.5,0,0,1,.36-2.17c4,.37,8,.12,12.14.18V4.87a.92.92,0,0,1-.17,0A1.57,1.57,0,0,0,84,3.5c-1.12,0-2.23,0-3.37,0a5.6,5.6,0,0,0-.06.65q0,5.05,0,10.09a12.61,12.61,0,0,0,.11,1.5c.11.93.25,1.06,1.19,1.23l.35,0S82.24,17.06,82.32,17.16Z"/></g></g></g></svg>