<svg xmlns="http://www.w3.org/2000/svg" viewBox="0 0 302.12 52.49"><defs><style>.cls-1{fill:#efeeed;}</style></defs><title>logo-grande</title><g id="Capa_2" data-name="Capa 2"><g id="Layer_1" data-name="Layer 1"><path class="cls-1" d="M11.48,29.67c0,2,0,3.71,0,5.46.07,3.53.07,7.07.26,10.6.21,4.06.78,4.58,4.81,5.22a1.21,1.21,0,0,1,.87.49H1.88c3.66-.4,4-3.1,4.1-5.84.14-5.39.19-10.79.2-16.18q0-11,0-22c0-5.67-.19-5.8-5.9-6.83C1,.28-.41,0,.12,0,6.5,0,14.57,0,20.94.18c4.27.16,8.21,1.48,11,5.08,3,4,3,8.35,1.38,12.83A22.64,22.64,0,0,1,28.08,26c-.61.63-1.2,1.28-2,2.15,1.62,2.06,3.16,4.07,4.75,6,2.55,3.17,5.09,6.36,7.69,9.48,3.31,4,7.1,7.19,12.6,7.5-3.54,0-7.11.27-10.62-.08-2.87-.28-4.88-2.46-6.58-4.63-3.44-4.38-6.9-8.76-10-13.35-1.72-2.52-3.05-3.37-6.71-3.52C15.39,29.57,13.62,29.67,11.48,29.67Zm0-15.34h0c0,3.35,0,6.71,0,10.06,0,1.72,0,2.85,0,2.85s6.64.13,8.83.13c3.37,0,5.45-1.25,6.8-4a17.29,17.29,0,0,0,.6-13.88C26.11,5,22.84,2.07,18,2.07c-4.44,0-6.59.78-6.55,2.46C11.54,7.8,11.49,11.06,11.49,14.33Z"/><path class="cls-1" d="M98.53,28.62C98.4,44.14,85.77,54,70.93,52.23c-7-.84-12.67-3.84-16.48-9.86C45,27.48,54.77,9.89,69.29,7.45a31.42,31.42,0,0,1,13.13.49A20.71,20.71,0,0,1,98.53,28.62ZM74.13,9c-8.84,0-14.8,4.74-16.67,13.28A27.07,27.07,0,0,0,58.7,38.37c2.33,5.84,6.51,9.81,12.77,11.32,9,2.15,18.17-2.19,20.31-12.43a31.3,31.3,0,0,0-.28-14.69C89.48,15,83.41,8.87,74.13,9Z"/><path class="cls-1" d="M268.41,51.42H256.27l-.07-.2a10.79,10.79,0,0,1,1.23-.36,5.88,5.88,0,0,0,4.65-3.9q2.15-5.28,4.22-10.57,5.16-13.2,10.29-26.41c.41-1.05.93-2.05,1.68-3.68a28.89,28.89,0,0,1,1.59,2.78q3.66,8.8,7.25,17.64l6.8,16.68c.27.65.58,1.29.89,1.92,2,4.07,2.7,4.7,7.32,6.1H290.7a14.42,14.42,0,0,0-.43-3.12c-1.46-3.79-3.09-7.51-4.56-11.29a2.17,2.17,0,0,0-2.4-1.54c-3.81.05-7.62,0-11.42,0-1,0-1.89.05-2.3,1.27-1.19,3.51-2.56,7-3.65,10.5C265.12,49.9,265.47,50.31,268.41,51.42ZM277.76,16c-1.54,1.67-6,14-6.26,17h12.57Z"/><path class="cls-1" d="M170.31,44.64c-.25,1.82-.46,3.63-.76,5.44-.22,1.28-1.19,1.67-2.36,1.67-1.68,0-3.37,0-5.05,0l-16.22-.2H144.2s.1-.29.05-.31c3-.31,3.31-2.41,3.35-4.63.13-6.71.26-13.43.33-20.14,0-4.34.07-8.67,0-13-.08-4-.61-4.59-4.39-5.54h25.15c-.21,1.94-.46,4.14-.72,6.5-.87-1.32-1.35-2.8-2.35-3.4a8.94,8.94,0,0,0-4.11-.79c-2.62-.11-5.26,0-8.06,0V26.84c.39.05,11.19.49,14.19-.72-.19,2.45-.38,4.75-.56,7.05-.95-3.67-3.84-3.54-6.68-3.52-2.27,0-4.55,0-7.15,0,0,4.63,0,9,0,13.42,0,5.64.78,6.34,6.52,6.4,1.06,0,2.12,0,3.19,0,4.13-.12,5.12-1.36,6.93-4.8C170,44.47,170.2,44.66,170.31,44.64Z"/><path class="cls-1" d="M108.32,42.29c.17,3.33,1.57,5.82,4.76,7,3.83,1.45,7.65,1.58,11.24-.64,3.81-2.35,4.35-8.44.92-11.88-2.17-2.17-4.8-3.9-7.14-5.91a57.24,57.24,0,0,1-7-6.4c-5.22-6.23-2.54-14.52,5.27-16.83,4.65-1.38,9.28-.72,14,.43v7c-.37-.19-.62-.25-.63-.34a6,6,0,0,0-4.89-5.26c-3.5-.89-6.89-.9-9.91,1.27-2.8,2-3.21,6.29-.68,9.21a43.77,43.77,0,0,0,6,5.18c2.48,2,5.18,3.73,7.53,5.85A12.31,12.31,0,0,1,132,40.63a11.2,11.2,0,0,1-7.93,10.78,24.73,24.73,0,0,1-14.65-.06,2.63,2.63,0,0,1-2.22-3.08c.19-2,.32-4,.47-5.94Z"/><path class="cls-1" d="M214.78,7.85v6.53c-1.1-3.43-3.88-3.83-6.75-4-2.29-.11-4.6-.05-6.9-.14-1.52-.07-2.24.4-2.23,2.08C199,23.56,199,34.78,199,46c0,.62.13,1.23.19,1.85a2.92,2.92,0,0,0,2.85,2.93,3.74,3.74,0,0,1,1.74.62h-13.5c2.68-.75,3.11-2.82,3.12-5.2q.09-16.95.25-33.91c0-1.48-.53-2.07-2-2-2.48.09-5,.1-7.44.1-3,0-5.75.39-6.75,4.16-.67-2,0-5.1,1.07-7C190.7,8.33,202.69,7.79,214.78,7.85Z"/><path class="cls-1" d="M247,51.48c-.8,0-1.32.09-1.85.09-4.07,0-8.13,0-12.33-.18,2.65-.53,3.25-2.42,3.37-4.61.11-2,.21-4.06.22-6.1,0-9.28,0-18.57,0-27.86,0-.7-.06-1.4-.12-2.54h-3.38c-2,0-4.08.09-6.12.08-2.82,0-5.3.57-6.76,3.5a16.72,16.72,0,0,1,1.08-6.51c12.16,1.11,24.17.35,36.43.55v6.71c-.24,0-.51,0-.51-.07-.52-2.85-2.47-4-5.11-4-3.34-.08-6.68,0-10.11,0-.07.77-.18,1.37-.18,2q0,15.13,0,30.25a37.66,37.66,0,0,0,.31,4.5c.34,2.81.77,3.2,3.59,3.69.35.06.7.08,1.05.14C246.68,51.05,246.72,51.17,247,51.48Z"/></g></g></svg>