<svg xmlns="http://www.w3.org/2000/svg" viewBox="0 0 276.63 176.89"><defs><style>.cls-1{fill:#cc9891;}</style></defs><title>logo-footer</title><g id="Capa_2" data-name="Capa 2"><g id="Layer_1" data-name="Layer 1"><path class="cls-1" d="M64,49.34A82,82,0,0,1,84.07,61.47c.92.86,1.34,1,2.63.41a58.64,58.64,0,0,0,13.6-9.42c.85-.93.6-1.29,0-2.2-5.08-7.34-11.17-17.29-13-29.1-2-12.76,3.27-19.9,10.43-21,4.06-.62,8.38.48,13.48,5.25,3.94,3.74,7,9.4,8.24,17.53S119,44,109.31,55.63a1.13,1.13,0,0,0,0,1.57c1.86,3.07,3.82,5.54,5.6,8,.73.88.93.84,1.63.32,23.37-18,33.42-22.18,47.16-24.3C187,37.7,204.4,48.09,213.83,54a9.18,9.18,0,0,0,3,1.32c14.22,2.36,26.1,7.46,35.37,14.93,13.8,11.16,21.35,24,23.82,40.11,1.73,11.22-.12,22.39-5.21,30.51a27,27,0,0,1-18.39,11.75,25.65,25.65,0,0,1-18-3.36c-1.95-1.11-1.41-2.77.45-2.27,1.25.41,3.47.66,7.14.1,14.32-2.21,26.82-20,23.34-42.63-3-19.14-11.51-29.71-22.67-36.51a50,50,0,0,0-17.79-6.17c-1.41-.16-1.32.41-.57,1.28a50.11,50.11,0,0,1,12.14,24.86c2.08,13.54-2.54,26-14,27.71A15.52,15.52,0,0,1,211.25,113c-1.77-1.12-1.11-2,.24-2.21a16.1,16.1,0,0,0,11.1-7.65c3.86-5.75,4.93-14.23,3.8-21.58-1.47-9.49-4.93-15.28-8-18.58-1.44-1.56-2.42-1.61-4.61-1.66a59.18,59.18,0,0,0-10.37.8c-9.69,1.49-21,3.84-44.93,20.79-4.62,3.49-9.59,7.23-15,11.83-.7.5-.83.93.07,1.78a113,113,0,0,0,12.64,9.93c1.11.81,1.52.95,2.47.6a55.92,55.92,0,0,1,10.84-2.85c12.38-1.92,21.38,2.43,24.65,5.7a9.83,9.83,0,0,1,2.54,4.94c.33,2.15-.94,6.7-7.72,7.74-6.18,1-14-1-26-8.08-1.5-.75-1.93-.88-3.58,0a76.84,76.84,0,0,0-18.9,13.61c-.84.92-1,1.15-.44,2.26,4.65,9.58,6.7,16.4,7.81,23.55,1.31,8.52-.69,21.29-11.14,22.9-4.07.63-8.87-1-13.57-5.82a23.45,23.45,0,0,1-5.91-12.56c-1.49-9.67,3.11-22.26,13.81-33.82.68-.71.65-.88.3-1.82-1.88-3.28-4-6.92-6.39-10.7-.77-1.07-1.19-1.22-2.25-.45-12.45,9.24-21,13.14-29.66,14.47-12.77,2-26.9.19-43.36-12.72-1.55-1.15-1.81-1.5-3-1.72C31.9,109.74,19.5,102.54,9.57,92.18,5.37,88.07,1.24,81.79.28,75.59c-1.58-10.25,3.79-14,8.23-14.73,12.38-1.92,22.83,14.5,28.37,24.75,4.42,8.22,6.95,13,10.79,18.54.94,1,1.21,1.39,2.57,1.18A63.11,63.11,0,0,0,72.4,97.56c7.71-4,15-9.26,25.3-17,.88-.72.79-1.32.09-2a104,104,0,0,0-8-7.89c-.69-.68-1.28-.59-2.42-.21a42.62,42.62,0,0,1-8.37,2.08A46.71,46.71,0,0,1,48.88,67.1C42,63.23,39,59.33,38.41,55.66c-.8-5.22,3.25-8.43,9.06-9.33C49.6,46,55.68,45.67,64,49.34Zm-24,54a58.63,58.63,0,0,1-4.32-7.45C31.77,88.37,29.46,83.76,26.81,78c-4.34-8.85-7.7-11.29-11.37-10.72C10,68.15,6.81,73,7.88,80c.93,6,4,10.47,9.51,15.35a41.69,41.69,0,0,0,21.26,9.4C40.44,104.86,41,104.56,40,103.34ZM53.56,53.71c-5.24.81-7.18,3.5-6.74,6.39.35,2.32,3.2,4.06,5.94,5.23C57.22,67.22,65.05,67.8,72,66.72a45.84,45.84,0,0,0,8.79-2.15c1.33-.4,1-1-.29-1.93C71.46,55.5,61.1,52.54,53.56,53.71Zm62.83,46.57c-2.23-2.82-5.45-7.08-9.35-11.83-.71-.68-1.08-.62-1.81-.12-8.74,7.48-26.65,21.14-48.94,24.2-1.36.2-1.5.6,0,1.56,8.88,6.16,16.57,7.34,24.71,6.09,12-1.85,23.83-9.8,35.05-18.08C117,101.38,117.11,101.16,116.39,100.28Zm-3.71-33.1c-1.5-1.94-3.46-4.41-5.68-7.26-.51-.7-.74-.87-1.44-.35a57.63,57.63,0,0,1-12.15,8.59c-.91.55-1.07.77,0,1.59,1.41,1.36,3.76,3.77,7,6.64,1.12.82,1.31.79,2.17.07,2.88-2,5.86-4.47,9.6-7.22C113.27,68.48,113.4,68.06,112.68,67.18Zm-10-19.85c.58,1.11,1,1.05,1.62.14,8.22-12.15,10.14-21.56,8.73-30.66-1.28-8.32-5.13-11.49-9.59-10.8C98.6,6.75,92.06,13.12,94,25.69,95.34,34.39,98.29,40.68,102.67,47.33Zm16.8,51.09c.72.88,1.08.63,1.61.14,5.16-3.77,8.47-6.65,10.1-7.7.91-.54.82-1.11.15-1.59A139.35,139.35,0,0,1,121,77.77c-1-1.23-1.38-1.17-2.25-.44-3.18,2.48-6.34,5.12-8.81,7.1-1.24,1-1,1.15-.31,1.83C114.34,92.08,117.57,96.32,119.47,98.42ZM131,169.52c7.74-1.2,11.86-11.73,10.37-21.4A47.57,47.57,0,0,0,137,133.93c-.56-1.09-1-1.24-2-.07-6.07,6.86-14.1,19-12.64,28.48C122.75,164.66,124.44,170.53,131,169.52Zm4.33-49a64.42,64.42,0,0,1,17.29-11.18c1.12-.38,1-1,.39-1.26-3.58-2.61-7.39-5.59-12-9.63-.94-.85-1.32-.79-2-.1-4.23,3.43-8.25,6.82-11.44,9.3-.88.72-1,.94-.27,2,2,2.85,4.69,7.4,6.33,10.31C134.23,120.89,134.83,121,135.36,120.53ZM123.57,73.62c-.88.74-1,1.13-.29,2a91,91,0,0,0,10.26,11.3c.73.88,1.15,1,1.87.5C165,64.66,174.28,58.28,196.54,54.85a50.57,50.57,0,0,1,9.21-.63c1.38,0,1.32-.4,0-1-9.42-4.68-22.24-6.88-34.43-5C154.9,50.76,139.63,60.85,123.57,73.62Zm63.82,37.49c-.3-1.94-3.08-4.46-10-3.39a43.09,43.09,0,0,0-11.15,3.5c-1.1.56-1.05,1,0,1.58,5.15,2.56,11.12,4,15.75,3.29C185.68,115.53,187.72,113.25,187.39,111.11Z"/></g></g></svg>