<svg xmlns="http://www.w3.org/2000/svg" viewBox="0 0 46.98 30"><defs><style>.cls-1{fill:#24574a;}</style></defs><title>footer</title><g id="Capa_2" data-name="Capa 2"><g id="Layer_1" data-name="Layer 1"><path class="cls-1" d="M39.56,24.9a4.39,4.39,0,0,0,4.27-1.81,6.4,6.4,0,0,0,1.22-3.83,10,10,0,0,0-1-4.69,7.47,7.47,0,0,0-3.17-3.2A5.62,5.62,0,0,0,39,10.65c-.27-.05-.55-.07-1-.12L39,11.89a7,7,0,0,1,1.22,4.78,2.91,2.91,0,0,1-2,2.76,2.49,2.49,0,0,1-2.56-.52,1,1,0,0,1,.32-.19,3,3,0,0,0,1.74-1.24,4,4,0,0,0,.75-2.4,8.29,8.29,0,0,0-.17-2,4.86,4.86,0,0,0-1.62-2.68,7.57,7.57,0,0,0-2.78.23c-2.53.39-4.59,1.78-6.65,3.15-.71.48-1.4,1-2.07,1.52a7.74,7.74,0,0,0-.76.75c.06.69.63.78,1,1.09s.75.59,1.2.94l1.15-.24a8.6,8.6,0,0,1,1.46-.35,5,5,0,0,1,4.08,1.39V20a1.58,1.58,0,0,1-1.45.73,7.13,7.13,0,0,1-4.13-1.35,3.13,3.13,0,0,0-2,.82c-.6.42-1.16.89-1.71,1.33a1.24,1.24,0,0,0,.15,1.2,12.54,12.54,0,0,1,1.07,3.43,5.7,5.7,0,0,1-.41,2.76l-.35.37a1.92,1.92,0,0,1-2.61.35,4.13,4.13,0,0,1-1.86-4.41,10.58,10.58,0,0,1,2.41-4.32l-1.26-2.16c-.77.51-1.46,1-2.19,1.44a8.51,8.51,0,0,1-5.47,1.27,8.64,8.64,0,0,1-4.18-1.72,6.22,6.22,0,0,0-2.57-1.12,9.05,9.05,0,0,1-4.3-2.34c-.32-.31-.64-.63-1-.95A4.48,4.48,0,0,1,0,11.7l.43-.9A2.39,2.39,0,0,1,3.59,11a9.64,9.64,0,0,1,2.28,2.79c.6,1.19,1.32,2.31,2,3.45a5.78,5.78,0,0,0,.46.6c2.77-.33,4.89-1.8,7-3.28l1.34-1c-.25-.83-1-1.19-1.6-1.65A9.87,9.87,0,0,1,9.79,12,5.68,5.68,0,0,1,7,10.34,1.79,1.79,0,0,1,6.56,8.8a2,2,0,0,1,1.82-1,7.56,7.56,0,0,1,4.2,1.36c.67.4,1.29.91,2,1.38A7.68,7.68,0,0,0,17.1,8.68c-.35-.59-.67-1.17-1-1.72a7.52,7.52,0,0,1-1.25-4.5A3.72,3.72,0,0,1,15,1.53,2.08,2.08,0,0,1,18,.27a4.7,4.7,0,0,1,2.15,2.91,4.83,4.83,0,0,1,.2,1.31,8,8,0,0,1-1.9,5.12l1.16,1.52a2.85,2.85,0,0,0,.58-.33,25.26,25.26,0,0,1,4-2.72,8.84,8.84,0,0,1,2.87-1,10.16,10.16,0,0,1,6.69.72c.74.38,1.49.71,2.21,1.11a8.64,8.64,0,0,0,2.52.81A11.28,11.28,0,0,1,43,12a10.32,10.32,0,0,1,2.88,3.49,9.75,9.75,0,0,1,1.07,5.53,5.29,5.29,0,0,1-2,3.87,4.48,4.48,0,0,1-4.32.72,5.44,5.44,0,0,1-.79-.32C39.71,25.26,39.67,25.08,39.56,24.9ZM34.81,9.19A1.28,1.28,0,0,0,34,8.65a10.56,10.56,0,0,0-3.83-.59A10.39,10.39,0,0,0,26,9.17a17.23,17.23,0,0,0-3.47,2.16c-.53.44-1.2.73-1.55,1.35a6.92,6.92,0,0,0,2,2.11c.22-.15.47-.29.69-.47a35.83,35.83,0,0,1,5-3.51,9.73,9.73,0,0,1,2.53-1.05A15,15,0,0,1,34.81,9.19Zm-14.9,7.92A26,26,0,0,0,18,14.89a17.55,17.55,0,0,1-8.37,4.22c.11.16.16.33.28.39a8.54,8.54,0,0,0,1.37.64,6,6,0,0,0,4.18-.3A19.08,19.08,0,0,0,19.91,17.11Zm-13.08.52c-.32-.54-.58-1-.81-1.4-.6-1.16-1.16-2.33-1.77-3.49-.21-.41-.5-.79-.69-1.1l-.91-.29-.86.44-.43.86v1.12a5.59,5.59,0,0,0,2.82,3.17A4.64,4.64,0,0,0,6.83,17.63ZM17.75,1A2.24,2.24,0,0,0,16,3.23a5.65,5.65,0,0,0,.28,2.34,5.44,5.44,0,0,0,1.38,2.51,5.61,5.61,0,0,0,.49-.7,15.42,15.42,0,0,0,.71-1.55,4.65,4.65,0,0,0-.25-4.43Zm5.11,27.54A3.66,3.66,0,0,0,24,25.61a4.71,4.71,0,0,0-1-3,8.12,8.12,0,0,0-2.21,3.79,1.73,1.73,0,0,0,1.12,2.33ZM8.2,10.62a6.12,6.12,0,0,0,4.05.67c.47-.1,1.08,0,1.43-.6a7.19,7.19,0,0,0-3.31-1.62A2.07,2.07,0,0,0,8,9.83a.47.47,0,0,0-.06.19Zm15.57,6-2.18,1.72a7,7,0,0,0,1.24,2l3.17-2Zm-5.28-2.15,1.91,2.28a10.2,10.2,0,0,0,2-1.55L20.32,13Zm-.11-2.89a4.3,4.3,0,0,0,2.19-1.34l-1.23-1L16.67,10.6ZM28,19a5.89,5.89,0,0,0,3.22.54.88.88,0,0,0,.52-.85l-.38-.44A4.83,4.83,0,0,0,28,19Z"/></g></g></svg>